PathFileType	4	(X/Y/Z)	C:/Users/opensim2020/Desktop/walking_exp_matlab/subject01_walking11_straight_03.trc																																																																																																																																		
DataRate	CameraRate	NumFrames	NumMarkers	Units	OrigDataRate	OrigDataStartFrame	OrigNumFrames																																																																																																																														
100	100	4	44	mm	100	2870	338																																																																																																																														
Frame#	Time	LFHD			RFHD			LBHD			RBHD			C7			T10			CLAV			STRN			RBAK			LSHO			LUPA			LELB			LFRM			LWRA			LWRB			LFIN			RSHO			RUPA			RELB			RFRM			RWRA			RWRB			RFIN			LASI			RASI			LPSI			RPSI			LTHI			LKNE			LTIB			LANK			LHEE			LTOE			RTHI			RKNE			RTIB			RANK			RHEE			RTOE			*39			*40			*41			*42			*43		
		X1	Y1	Z1	X2	Y2	Z2	X3	Y3	Z3	X4	Y4	Z4	X5	Y5	Z5	X6	Y6	Z6	X7	Y7	Z7	X8	Y8	Z8	X9	Y9	Z9	X10	Y10	Z10	X11	Y11	Z11	X12	Y12	Z12	X13	Y13	Z13	X14	Y14	Z14	X15	Y15	Z15	X16	Y16	Z16	X17	Y17	Z17	X18	Y18	Z18	X19	Y19	Z19	X20	Y20	Z20	X21	Y21	Z21	X22	Y22	Z22	X23	Y23	Z23	X24	Y24	Z24	X25	Y25	Z25	X26	Y26	Z26	X27	Y27	Z27	X28	Y28	Z28	X29	Y29	Z29	X30	Y30	Z30	X31	Y31	Z31	X32	Y32	Z32	X33	Y33	Z33	X34	Y34	Z34	X35	Y35	Z35	X36	Y36	Z36	X37	Y37	Z37	X38	Y38	Z38	X39	Y39	Z39	X40	Y40	Z40	X41	Y41	Z41	X42	Y42	Z42	X43	Y43	Z43	X44	Y44	Z44
																																																																																																																																					
43	0.42	-616.74573	1680.73657	1475.78772	-586.24451	1690.60059	1584.96326	-713.08014	1605.23242	1501.22778	-682.95026	1613.8269	1617.51062	-700.89349	1430.1051	1523.85474	-730.6225	1138.45874	1526.61914	-553.93268	1370.90393	1521.46155	-508.2113	1214.23242	1509.01685	-749.7356	1233.84888	1596.52966	-614.12927	1404.41443	1362.46387	-636.28894	1221.23706	1273.54932	-645.16724	1070.25671	1270.2832	-601.09485	965.56915	1242.42505	-517.36353	854.57977	1256.85693	-571.28754	847.27899	1232.39844	-518.41119	781.90692	1220.53821	-620.34442	1391.61511	1673.07727	-675.47723	1189.21497	1770.0083	-669.96802	1064.47021	1772.1897	-633.95996	949.09393	1802.37805	-542.901	840.12805	1786.04248	-588.3764	836.77545	1822.94531	-545.03601	761.93988	1821.44373	-566.88831	930.45844	1406.13281	-549.67175	930.87164	1621.57971	-748.66388	946.69257	1471.68848	-735.41418	948.76788	1617.36353	-570.89478	603.04169	1332.3667	-571.49048	469.70346	1339.20898	-715.07751	354.42548	1345.37659	-869.92139	207.6965	1407.3302	-912.09546	206.35435	1471.06396	-794.41064	81.89006	1370.58423	-580.76392	598.67188	1670.16223	-558.12488	442.47522	1637.20996	-606.46631	272.38501	1644.07471	-634.63318	70.19023	1590.88232	-687.33514	32.44963	1544.60645	-494.59415	32.95425	1580.81201	-610.65527	1719.39026	1566.57971	1973.0802	1023.31689	-3101.92529	2012.50916	1022.10352	-3140.79126	NaN	NaN	NaN	NaN	NaN	NaN
44	0.43	-611.09113	1680.89014	1476.56982	-580.43872	1690.7926	1585.71375	-707.44019	1605.56689	1502.07227	-677.24249	1614.15259	1618.33423	-695.6059	1430.3999	1524.8064	-725.5451	1138.78882	1527.61145	-548.72174	1370.98401	1522.1759	-503.15054	1214.31067	1509.70813	-744.6543	1234.20154	1597.47925	-609.15967	1404.58142	1363.22607	-631.92603	1221.4364	1274.47937	-641.55841	1070.35925	1271.43335	-598.67035	965.55267	1243.37854	-515.88782	853.75458	1257.69739	-569.9267	846.97137	1233.15796	-517.6897	781.04004	1221.26184	-614.97723	1391.66125	1673.86328	-669.53979	1189.23926	1771.0802	-663.54907	1064.44983	1773.47424	-626.52557	949.32709	1803.42432	-534.70978	841.0921	1786.7572	-580.00842	837.38025	1823.81885	-536.1687	762.82465	1822.12329	-562.08081	931.00024	1406.88428	-544.9624	930.71039	1622.33093	-743.83307	946.97876	1472.13232	-730.75055	948.72052	1617.79578	-562.14447	604.43384	1332.67188	-560.75458	471.37799	1339.55774	-703.67975	355.34735	1346.00952	-857.2417	207.53517	1407.92285	-899.74414	205.04765	1471.64233	-779.73163	84.06056	1369.99744	-577.33765	598.22137	1670.1864	-555.2326	442.1409	1637.33228	-604.4538	272.19513	1643.99451	-634.35345	70.19092	1590.77185	-687.83594	33.29077	1544.60059	-494.42648	33.10311	1580.93347	-604.95929	1719.50525	1567.31238	1972.98828	1024.00037	-3101.95996	2012.48364	1021.96283	-3140.64453	NaN	NaN	NaN	NaN	NaN	NaN
45	0.44	-605.68549	1681.25659	1477.23804	-574.71613	1690.93652	1586.36768	-701.99469	1605.98486	1502.78931	-671.61041	1614.45972	1619.09436	-690.27472	1430.63672	1525.68188	-720.55444	1139.12109	1528.55444	-543.44757	1371.04932	1522.83276	-498.14148	1214.33203	1510.30151	-739.59576	1234.51685	1598.37927	-604.14691	1404.82275	1363.96313	-627.58759	1221.58069	1275.33911	-637.9884	1070.6593	1272.60461	-596.20593	965.52869	1244.34485	-514.36572	852.89124	1258.20471	-568.57959	846.75287	1233.91052	-517.07428	780.21307	1221.89417	-609.58063	1391.67566	1674.61719	-663.67053	1189.22107	1772.10803	-657.20099	1064.40002	1774.56885	-619.24329	949.54852	1804.36511	-526.60516	842.06714	1787.34875	-571.81091	837.9259	1824.45837	-527.39319	763.79938	1822.71423	-557.3645	931.54956	1407.52417	-540.33136	930.58478	1623.03296	-739.03699	947.32422	1472.51831	-726.13306	948.84412	1618.27527	-553.48199	605.91364	1333.11035	-550.20483	472.84012	1340.02954	-692.23877	356.14096	1346.56897	-844.15381	206.50681	1408.11084	-887.17371	203.08376	1471.56348	-763.73022	84.95084	1369.91858	-573.73938	597.89923	1670.32764	-552.61694	441.54263	1637.06702	-602.44171	272.03305	1643.974	-634.30054	70.57705	1590.79663	-687.78314	33.45032	1544.65222	-494.32245	33.0942	1580.8866	-599.09528	1719.75586	1568.02185	1973.10168	1023.47223	-3101.92383	2012.53381	1022.04401	-3140.79419	NaN	NaN	NaN	NaN	NaN	NaN
46	0.45	-599.85974	1681.28259	1477.86084	-568.99292	1691.09167	1586.95313	-696.46198	1606.27295	1503.49951	-665.98401	1614.7428	1619.77344	-685.04169	1430.87585	1526.47754	-715.56439	1139.39307	1529.49182	-538.22766	1371.12439	1523.44531	-493.08575	1214.41687	1510.9071	-734.53522	1234.85632	1599.24158	-599.15527	1405.04443	1364.64856	-623.30157	1221.82739	1276.13623	-634.54523	1070.95898	1273.66675	-593.81488	965.58661	1245.22534	-513.00177	852.03815	1258.6449	-567.22156	846.435	1234.65881	-516.323	779.43652	1222.63257	-604.20294	1391.78003	1675.33093	-657.90631	1189.20593	1773.03625	-651.01721	1064.31177	1775.56409	-612.02173	949.7702	1805.14905	-518.5387	843.03009	1787.81665	-563.63599	838.51532	1825.06775	-518.63037	764.68024	1823.10352	-552.72534	932.17639	1408.19666	-535.62616	930.46704	1623.73181	-734.2688	947.67261	1472.87366	-721.38989	948.73029	1618.52063	-544.87549	607.30774	1333.57703	-539.76093	474.49219	1340.63696	-680.72852	356.58081	1347.10205	-830.57965	204.75356	1407.93787	-874.03253	200.06462	1471.29919	-747.3194	85.49638	1369.99731	-570.14941	597.50098	1670.31836	-549.94489	441.18478	1637.05139	-600.70038	271.90192	1643.91919	-633.87671	70.29386	1590.62231	-687.73621	33.61978	1544.58484	-494.21741	33.06811	1580.85022	-593.34509	1719.9834	1568.64893	1973.19336	1023.60895	-3101.85547	2012.56848	1021.99762	-3140.65991	NaN	NaN	NaN	NaN	NaN	NaN
